<?xml version="1.0" encoding="UTF-8"?>
<!DOCTYPE svg PUBLIC "-//W3C//DTD SVG 1.1//EN" "http://www.w3.org/Graphics/SVG/1.1/DTD/svg11.dtd">
<!-- Creator: CorelDRAW -->
<svg xmlns="http://www.w3.org/2000/svg" xml:space="preserve" width="0.853331in" height="0.853331in" style="shape-rendering:geometricPrecision; text-rendering:geometricPrecision; image-rendering:optimizeQuality; fill-rule:evenodd; clip-rule:evenodd"
viewBox="0 0 0.853331 0.853331">
 <defs>
  <style type="text/css">
   <![CDATA[
    .str1 {stroke:#007CC3;stroke-width:0.003}
    .str0 {stroke:#1F1A17;stroke-width:0.003}
    .fil2 {fill:none;fill-rule:nonzero}
    .fil4 {fill:#007CC3}
    .fil3 {fill:#1F1A17}
    .fil1 {fill:#007CC3;fill-rule:nonzero}
    .fil0 {fill:#1F1A17;fill-rule:nonzero}
   ]]>
  </style>
 </defs>
 <g id="Layer_x0020_1">
  <metadata id="CorelCorpID_0Corel-Layer"/>
  <path class="fil0" d="M0.0732992 0.792236l0 -0.019752c0.0058622,0 0.00879528,-0.00173228 0.00879528,-0.00517717 0,-0.00316535 -0.00224803,-0.00474409 -0.00674409,-0.00474409 -0.00451969,0 -0.0067874,0.00216535 -0.0067874,0.00651181l0 0.0492047 -0.0290433 0 0 -0.0468858c0,-0.00485827 0.000633858,-0.00885039 0.00190551,-0.0119567 0.00124803,-0.00311024 0.00341732,-0.00600787 0.00647244,-0.0086811 0.00342126,-0.00297638 0.00772047,-0.00533071 0.012874,-0.00706299 0.00515354,-0.00173228 0.0104803,-0.00259843 0.0159488,-0.00259843 0.00994488,0 0.0182717,0.00257874 0.0250157,0.00772047 0.00675984,0.00516142 0.0101299,0.0115433 0.0101299,0.0191496 0,0.00740157 -0.00302756,0.0133898 -0.00908268,0.0179843 -0.00554331,0.00423622 -0.013874,0.00634646 -0.0250354,0.00634646l-0.00444882 -5.90551e-005z"/>
  <path class="fil0" d="M0.152933 0.76322l0 0.0550591 -0.0290433 0 0 -0.0753031 0.0372953 0c0.0113583,0 0.0201535,0.00216535 0.0264094,0.00651575 0.00696063,0.00485827 0.0104528,0.0110157 0.0104528,0.0184724 0,0.00762598 -0.00432677,0.0140276 -0.0129449,0.0192638l0.0167283 0.0310512 -0.0304803 0 -0.0140984 -0.0242717 0 -0.0193583 0.00229921 0c0.00611024,0 0.00915748,-0.0020315 0.00915748,-0.00608268 0,-0.00355906 -0.00353937,-0.00534646 -0.0105984,-0.00534646l-0.00517717 0z"/>
  <polygon class="fil0" points="0.240598,0.742976 0.240598,0.81828 0.211555,0.81828 0.211555,0.742976 "/>
  <path class="fil0" d="M0.258134 0.81828l0 -0.0542874c0,-0.00672047 0.0026378,-0.0122205 0.00793701,-0.0164961 0.00530315,-0.00427165 0.0121654,-0.00640157 0.0206181,-0.00640157 0.0100157,0 0.0177323,0.00355906 0.0231299,0.0106575 0.00327165,-0.00382283 0.0068189,-0.00657087 0.0105748,-0.00820866 0.00379134,-0.0016378 0.00842913,-0.00244882 0.0139724,-0.00244882 0.00877165,0 0.0154843,0.00212992 0.0201772,0.00640157 0.00466535,0.00427559 0.00700787,0.0104134 0.00700787,0.018437l0 0.0523465 -0.0290433 0 0 -0.0489961c0,-0.00242913 -0.000240157,-0.00402756 -0.000755906,-0.0048189 -0.000484252,-0.000791339 -0.00151181,-0.00118898 -0.00305512,-0.00118898 -0.00285433,0 -0.00429134,0.00188583 -0.00429134,0.00562992l0 0.049374 -0.0290433 0 0 -0.0489961c0,-0.00238976 -0.000271654,-0.00399213 -0.000783465,-0.00480315 -0.00053937,-0.000807087 -0.00156299,-0.00120472 -0.0031063,-0.00120472 -0.00285433,0 -0.00429528,0.00199606 -0.00429528,0.00600787l0 0.0489961 -0.0290433 0z"/>
  <path class="fil0" d="M0.431244 0.77228l0 0.0167756 -0.0189843 0c-0.00256299,0 -0.00438976,0.00030315 -0.0054685,0.000885827 -0.0010748,0.000582677 -0.00161417,0.00156299 -0.00161417,0.00295669 0,0.00157874 0.00053937,0.00261811 0.0016378,0.00312598 0.00109843,0.000488189 0.00334646,0.000732283 0.00674409,0.000732283l0.0195394 0 0 0.0215236 -0.0228386 0c-0.0107205,0 -0.0189291,-0.00197638 -0.0245984,-0.00593307 -0.00568898,-0.00395276 -0.00852362,-0.00965748 -0.00852362,-0.0171339l0 -0.0295079c0,-0.00720866 0.00268898,-0.0128031 0.00803543,-0.0167756 0.00537402,-0.00397244 0.0129213,-0.00595276 0.0226457,-0.00595276l0.0252795 0 0 0.0216181 -0.0185394 0c-0.00500394,0 -0.00752362,0.00126378 -0.00752362,0.00376772 0,0.0014685 0.000586614,0.00248425 0.00178346,0.00305118 0.00119291,0.000582677 0.00332283,0.000866142 0.00637402,0.000866142l0.0160512 0z"/>
  <polygon class="fil1" points="0.528917,0.764594 0.528917,0.81828 0.499874,0.81828 0.499874,0.764594 0.477622,0.764594 0.477622,0.742976 0.551122,0.742976 0.551122,0.764594 "/>
  <path class="fil1" d="M0.613945 0.77228l0 0.0167756 -0.0189843 0c-0.00256299,0 -0.00438976,0.00030315 -0.0054685,0.000885827 -0.0010748,0.000582677 -0.00161417,0.00156299 -0.00161417,0.00295669 0,0.00157874 0.00053937,0.00261811 0.0016378,0.00312598 0.00109843,0.000488189 0.00334646,0.000732283 0.00674409,0.000732283l0.0195394 0 0 0.0215236 -0.0228386 0c-0.0107205,0 -0.0189291,-0.00197638 -0.0245984,-0.00593307 -0.00568898,-0.00395276 -0.00852362,-0.00965748 -0.00852362,-0.0171339l0 -0.0295079c0,-0.00720866 0.00268898,-0.0128031 0.00803543,-0.0167756 0.00537402,-0.00397244 0.0129213,-0.00595276 0.0226457,-0.00595276l0.0252795 0 0 0.0216181 -0.0185394 0c-0.00500394,0 -0.00752362,0.00126378 -0.00752362,0.00376772 0,0.0014685 0.000586614,0.00248425 0.00178346,0.00305118 0.00119291,0.000582677 0.00332283,0.000866142 0.00637402,0.000866142l0.0160512 0z"/>
  <path class="fil1" d="M0.698528 0.781484l0.0304331 0.000602362c-0.002,0.0121457 -0.00747244,0.0215236 -0.0163622,0.0281535 -0.00888976,0.00661024 -0.0204961,0.00992126 -0.034811,0.00992126 -0.0145512,0 -0.0267441,-0.00376378 -0.0365394,-0.0112795 -0.00979528,-0.0075315 -0.0147008,-0.0168504 -0.0147008,-0.028 0,-0.0112205 0.00500394,-0.0206535 0.0149921,-0.0283189 0.00999606,-0.00764567 0.0223031,-0.0114685 0.0369606,-0.0114685 0.0144094,0 0.0264291,0.00374803 0.0360748,0.0112598 0.00666929,0.0051811 0.0114094,0.0124094 0.0141654,0.0216732l-0.0311417 0.00160236c-0.0034685,-0.00822835 -0.0100866,-0.0123543 -0.019811,-0.0123543 -0.00620472,0 -0.0113031,0.00165748 -0.0153386,0.00497244 -0.0040315,0.00329528 -0.00605906,0.00751181 -0.00605906,0.0126339 0,0.00491732 0.00198425,0.009 0.00594094,0.0122205 0.00395276,0.00322047 0.00896063,0.00482283 0.0150197,0.00482283 0.00615354,0 0.0110669,-0.00141339 0.0147008,-0.00425591 0.00366929,-0.00282677 0.0058189,-0.0068937 0.00647638,-0.012185z"/>
  <path class="fil1" d="M0.779843 0.769906l0 0.0198661 -0.00811024 0 0 0.0285079 -0.0290433 0 0 -0.0753031 0.0290433 0 0 0.0269291 0.00811024 0zm0.0339764 -0.0269291l0 0.0753031 -0.0290433 0 0 -0.0753031 0.0290433 0z"/>
  <path class="fil2 str0" d="M0.0732992 0.792236l0 -0.019752c0.0058622,0 0.00879528,-0.00173228 0.00879528,-0.00517717 0,-0.00316535 -0.00224803,-0.00474409 -0.00674409,-0.00474409 -0.00451969,0 -0.0067874,0.00216535 -0.0067874,0.00651181l0 0.0492047 -0.0290433 0 0 -0.0468858c0,-0.00485827 0.000633858,-0.00885039 0.00190551,-0.0119567 0.00124803,-0.00311024 0.00341732,-0.00600787 0.00647244,-0.0086811 0.00342126,-0.00297638 0.00772047,-0.00533071 0.012874,-0.00706299 0.00515354,-0.00173228 0.0104803,-0.00259843 0.0159488,-0.00259843 0.00994488,0 0.0182717,0.00257874 0.0250157,0.00772047 0.00675984,0.00516142 0.0101299,0.0115433 0.0101299,0.0191496 0,0.00740157 -0.00302756,0.0133898 -0.00908268,0.0179843 -0.00554331,0.00423622 -0.013874,0.00634646 -0.0250354,0.00634646l-0.00444882 -5.90551e-005z"/>
  <path class="fil2 str0" d="M0.152933 0.76322l0 0.0550591 -0.0290433 0 0 -0.0753031 0.0372953 0c0.0113583,0 0.0201535,0.00216535 0.0264094,0.00651575 0.00696063,0.00485827 0.0104528,0.0110157 0.0104528,0.0184724 0,0.00762598 -0.00432677,0.0140276 -0.0129449,0.0192638l0.0167283 0.0310512 -0.0304803 0 -0.0140984 -0.0242717 0 -0.0193583 0.00229921 0c0.00611024,0 0.00915748,-0.0020315 0.00915748,-0.00608268 0,-0.00355906 -0.00353937,-0.00534646 -0.0105984,-0.00534646l-0.00517717 0z"/>
  <polygon class="fil2 str0" points="0.240598,0.742976 0.240598,0.81828 0.211555,0.81828 0.211555,0.742976 "/>
  <path class="fil2 str0" d="M0.258134 0.81828l0 -0.0542874c0,-0.00672047 0.0026378,-0.0122205 0.00793701,-0.0164961 0.00530315,-0.00427165 0.0121654,-0.00640157 0.0206181,-0.00640157 0.0100157,0 0.0177323,0.00355906 0.0231299,0.0106575 0.00327165,-0.00382283 0.0068189,-0.00657087 0.0105748,-0.00820866 0.00379134,-0.0016378 0.00842913,-0.00244882 0.0139724,-0.00244882 0.00877165,0 0.0154843,0.00212992 0.0201772,0.00640157 0.00466535,0.00427559 0.00700787,0.0104134 0.00700787,0.018437l0 0.0523465 -0.0290433 0 0 -0.0489961c0,-0.00242913 -0.000240157,-0.00402756 -0.000755906,-0.0048189 -0.000484252,-0.000791339 -0.00151181,-0.00118898 -0.00305512,-0.00118898 -0.00285433,0 -0.00429134,0.00188583 -0.00429134,0.00562992l0 0.049374 -0.0290433 0 0 -0.0489961c0,-0.00238976 -0.000271654,-0.00399213 -0.000783465,-0.00480315 -0.00053937,-0.000807087 -0.00156299,-0.00120472 -0.0031063,-0.00120472 -0.00285433,0 -0.00429528,0.00199606 -0.00429528,0.00600787l0 0.0489961 -0.0290433 0z"/>
  <path class="fil2 str0" d="M0.431244 0.77228l0 0.0167756 -0.0189843 0c-0.00256299,0 -0.00438976,0.00030315 -0.0054685,0.000885827 -0.0010748,0.000582677 -0.00161417,0.00156299 -0.00161417,0.00295669 0,0.00157874 0.00053937,0.00261811 0.0016378,0.00312598 0.00109843,0.000488189 0.00334646,0.000732283 0.00674409,0.000732283l0.0195394 0 0 0.0215236 -0.0228386 0c-0.0107205,0 -0.0189291,-0.00197638 -0.0245984,-0.00593307 -0.00568898,-0.00395276 -0.00852362,-0.00965748 -0.00852362,-0.0171339l0 -0.0295079c0,-0.00720866 0.00268898,-0.0128031 0.00803543,-0.0167756 0.00537402,-0.00397244 0.0129213,-0.00595276 0.0226457,-0.00595276l0.0252795 0 0 0.0216181 -0.0185394 0c-0.00500394,0 -0.00752362,0.00126378 -0.00752362,0.00376772 0,0.0014685 0.000586614,0.00248425 0.00178346,0.00305118 0.00119291,0.000582677 0.00332283,0.000866142 0.00637402,0.000866142l0.0160512 0z"/>
  <polygon class="fil2 str1" points="0.528917,0.764594 0.528917,0.81828 0.499874,0.81828 0.499874,0.764594 0.477622,0.764594 0.477622,0.742976 0.551122,0.742976 0.551122,0.764594 "/>
  <path class="fil2 str1" d="M0.613945 0.77228l0 0.0167756 -0.0189843 0c-0.00256299,0 -0.00438976,0.00030315 -0.0054685,0.000885827 -0.0010748,0.000582677 -0.00161417,0.00156299 -0.00161417,0.00295669 0,0.00157874 0.00053937,0.00261811 0.0016378,0.00312598 0.00109843,0.000488189 0.00334646,0.000732283 0.00674409,0.000732283l0.0195394 0 0 0.0215236 -0.0228386 0c-0.0107205,0 -0.0189291,-0.00197638 -0.0245984,-0.00593307 -0.00568898,-0.00395276 -0.00852362,-0.00965748 -0.00852362,-0.0171339l0 -0.0295079c0,-0.00720866 0.00268898,-0.0128031 0.00803543,-0.0167756 0.00537402,-0.00397244 0.0129213,-0.00595276 0.0226457,-0.00595276l0.0252795 0 0 0.0216181 -0.0185394 0c-0.00500394,0 -0.00752362,0.00126378 -0.00752362,0.00376772 0,0.0014685 0.000586614,0.00248425 0.00178346,0.00305118 0.00119291,0.000582677 0.00332283,0.000866142 0.00637402,0.000866142l0.0160512 0z"/>
  <path class="fil2 str1" d="M0.698528 0.781484l0.0304331 0.000602362c-0.002,0.0121457 -0.00747244,0.0215236 -0.0163622,0.0281535 -0.00888976,0.00661024 -0.0204961,0.00992126 -0.034811,0.00992126 -0.0145512,0 -0.0267441,-0.00376378 -0.0365394,-0.0112795 -0.00979528,-0.0075315 -0.0147008,-0.0168504 -0.0147008,-0.028 0,-0.0112205 0.00500394,-0.0206535 0.0149921,-0.0283189 0.00999606,-0.00764567 0.0223031,-0.0114685 0.0369606,-0.0114685 0.0144094,0 0.0264291,0.00374803 0.0360748,0.0112598 0.00666929,0.0051811 0.0114094,0.0124094 0.0141654,0.0216732l-0.0311417 0.00160236c-0.0034685,-0.00822835 -0.0100866,-0.0123543 -0.019811,-0.0123543 -0.00620472,0 -0.0113031,0.00165748 -0.0153386,0.00497244 -0.0040315,0.00329528 -0.00605906,0.00751181 -0.00605906,0.0126339 0,0.00491732 0.00198425,0.009 0.00594094,0.0122205 0.00395276,0.00322047 0.00896063,0.00482283 0.0150197,0.00482283 0.00615354,0 0.0110669,-0.00141339 0.0147008,-0.00425591 0.00366929,-0.00282677 0.0058189,-0.0068937 0.00647638,-0.012185z"/>
  <path class="fil2 str1" d="M0.779843 0.769906l0 0.0198661 -0.00811024 0 0 0.0285079 -0.0290433 0 0 -0.0753031 0.0290433 0 0 0.0269291 0.00811024 0zm0.0339764 -0.0269291l0 0.0753031 -0.0290433 0 0 -0.0753031 0.0290433 0z"/>
  <polygon class="fil3 str0" points="0.589921,0.333563 0.802882,0.71135 0.435646,0.437217 "/>
  <polygon class="fil4 str1" points="0.425299,0.0415315 0.0528898,0.708764 0.683917,0.491524 0.27013,0.548421 0.589921,0.333563 "/>
 </g>
</svg>
